<?xml version="1.0" encoding="utf-8"?>
<!-- Generator: Adobe Illustrator 18.1.1, SVG Export Plug-In . SVG Version: 6.00 Build 0)  -->
<svg version="1.1" id="Ebene_2" xmlns="http://www.w3.org/2000/svg" xmlns:xlink="http://www.w3.org/1999/xlink" x="0px" y="0px"
	 viewBox="0 0 123.9 247.2" enable-background="new 0 0 123.9 247.2" xml:space="preserve">
<g>
	<g>
		<path fill="#754C1F" d="M43.6,190.3c-2.4,0-4.2-0.1-5.6-0.4c-7.2-1.4-16.3-7.5-16.7-7.7l-0.7-0.4l0-0.8c0-0.2-0.2-16.7,0.3-35.2
			c0.2-8.4,1.2-15.5,2-21.2c0.9-6.4,1.6-11.4,0.4-13.3c-2.9-4.7-5.3-19.1-2.6-25.4c1.1-2.5,1.3-9.5,1.3-12.6
			c-0.8-1.3-3.2-5.8-3.2-12c0-6.3,2.7-10.9,3.5-12.2c0.2-2.3,1.4-13.6,2.1-16.9C24.9,29.7,28,22,48.5,22c6.4,0,13.9,0.8,22.3,2.3
			c32.6,5.8,35.8,14.1,34.4,22.2c-0.4,2.5-2.2,8.3-2.6,9.9c0.4,1.7,1.7,7.6-0.2,14.2c-1.8,6.3-4.8,10.3-6,11.6
			c0,1.8-0.1,6.7-0.4,8.3c-0.6,4-0.6,13.1,0.7,22.1c0.8,6.2-1.2,14.3-2.8,20.3c-0.7,2.6-1.2,4.8-1.4,6.2c-0.5,4.5,0,17.6,0.8,21.9
			c0.9,4.7-1.1,22.5-1.2,23.3l-0.1,0.9l-0.8,0.3c-0.3,0.1-7.9,3.1-18.1,3.1c-3.9,0-8.9,0.4-14.3,0.8
			C53.5,189.8,47.9,190.3,43.6,190.3C43.6,190.3,43.6,190.3,43.6,190.3z"/>
	</g>
	<g>
		<path fill="#3C2415" d="M48.5,23.5c5.9,0,13.2,0.7,22,2.2c32.6,5.8,34.3,13.8,33.2,20.5c-0.5,2.8-2.7,10.1-2.7,10.1
			s2,6.5-0.1,13.8c-2.1,7.4-6,11.4-6,11.4s-0.1,6.9-0.4,8.7c-0.7,4.5-0.5,14,0.7,22.6c1.2,8.6-3.7,21.4-4.2,26.1s0,17.8,0.8,22.3
			c0.8,4.5-1.2,22.8-1.2,22.8s-7.5,3-17.5,3c-8,0-21.1,1.7-29.6,1.7c-2.1,0-4-0.1-5.4-0.4c-7-1.3-16.2-7.5-16.2-7.5
			s-0.2-16.5,0.3-35.2c0.5-18.7,4.8-31,2.2-35.3c-2.7-4.3-5-18.2-2.5-24c1.5-3.5,1.4-13.6,1.4-13.6s-3.2-4.6-3.2-11.5
			s3.5-11.7,3.5-11.7s1.4-13.5,2.1-17.2C26.7,28.2,32.8,23.5,48.5,23.5 M48.5,20.5c-21,0-24.9,7.9-25.6,11.3
			c-0.7,3.3-1.8,13.8-2.1,16.7c-1.1,1.8-3.6,6.5-3.6,12.7c0,6.1,2.1,10.6,3.2,12.4c0,3.9-0.3,9.7-1.1,11.6
			C16.3,92,18.8,106.9,22,112c0.9,1.5,0.2,6.8-0.6,12.3c-0.8,5.7-1.8,12.9-2,21.3c-0.5,18.5-0.3,35.1-0.3,35.3l0,1.6l1.3,0.9
			c0.4,0.3,9.8,6.5,17.3,8c1.5,0.3,3.4,0.4,5.9,0.4c4.4,0,10.1-0.4,15.5-0.9c5.3-0.4,10.3-0.8,14.1-0.8c10.5,0,18.3-3.1,18.6-3.2
			l1.7-0.7l0.2-1.8c0.2-1.9,2-18.9,1.1-23.7c-0.8-4.3-1.3-17.1-0.8-21.5c0.1-1.2,0.7-3.4,1.3-6c1.6-6.1,3.7-14.4,2.8-20.9
			c-1.2-8.6-1.3-17.8-0.7-21.7c0.2-1.5,0.3-5.8,0.4-8c1.4-1.7,4.2-5.7,5.9-11.7c1.8-6.5,0.8-12.3,0.3-14.6c0.6-2,2.2-7.3,2.6-9.7
			c2.1-12.1-8.2-19.1-35.6-24C62.5,21.3,55,20.5,48.5,20.5L48.5,20.5z"/>
	</g>
</g>
<g>
	<path fill="#603913" d="M30,52.4c-0.1,0-0.3-0.1-0.4-0.2c-0.2-0.2-0.2-0.5,0-0.7c0.6-0.5,0.6-1.4,0.6-2.3l0.1-5.7
		c0-0.3,0.2-0.5,0.5-0.5c0.3,0,0.5,0.2,0.5,0.5l-0.1,5.7c0,1.1-0.1,2.3-1,3C30.2,52.3,30.1,52.4,30,52.4z"/>
</g>
<g>
	<path fill="#603913" d="M42.1,53.4C42.1,53.4,42.1,53.4,42.1,53.4c-0.3,0-0.5-0.3-0.5-0.5c0-0.7,0.2-1.3,0.4-1.9
		c0.2-0.6,0.4-1.2,0.4-1.8c0-0.6-0.1-1.2-0.3-1.9c-0.2-1-0.5-2-0.2-3c0.1-0.3,0.4-0.4,0.6-0.3c0.3,0.1,0.4,0.4,0.3,0.6
		c-0.2,0.8,0,1.6,0.2,2.4c0.2,0.7,0.4,1.4,0.3,2.2c0,0.7-0.2,1.4-0.4,2.1c-0.2,0.6-0.4,1.1-0.4,1.7C42.6,53.2,42.4,53.4,42.1,53.4z"
		/>
</g>
<g>
	<path fill="#603913" d="M53.7,63.2c-0.2,0-0.4-0.2-0.5-0.4c-0.3-1.5,0.1-2.9,0.5-4.3c0.4-1.4,0.7-2.7,0.4-4
		c-0.1-0.3,0.1-0.5,0.4-0.6c0.3-0.1,0.5,0.1,0.6,0.4c0.3,1.5,0,3-0.4,4.5c-0.3,1.4-0.7,2.6-0.4,3.9C54.3,62.9,54.1,63.2,53.7,63.2
		C53.8,63.2,53.8,63.2,53.7,63.2z"/>
</g>
<g>
	<path fill="#603913" d="M62.4,66.3c-0.1,0-0.2,0-0.3-0.1c-0.2-0.2-0.3-0.5-0.1-0.7c0.4-0.6,0.7-1.3,0.8-2c0.1-0.5,0.1-1,0.1-1.6
		l0.2-7.5c0-0.3,0.2-0.5,0.5-0.5c0.3,0,0.5,0.2,0.5,0.5L64,61.9c0,0.6,0,1.2-0.1,1.8c-0.2,0.9-0.5,1.7-1,2.4
		C62.7,66.3,62.6,66.3,62.4,66.3z"/>
</g>
<g>
	<path fill="#603913" d="M72.5,63.1c-0.3,0-0.5-0.2-0.5-0.5c0-0.7,0.1-1.3,0.3-2l0.1-0.3c0.5-2,0.6-4,0.4-6c0-0.3,0.2-0.5,0.4-0.5
		c0.3,0,0.5,0.2,0.5,0.4c0.2,2.1,0.1,4.2-0.4,6.3l-0.1,0.3C73.1,61.4,73,62,73,62.6C73,62.8,72.8,63.1,72.5,63.1
		C72.5,63.1,72.5,63.1,72.5,63.1z"/>
</g>
<g>
	<path fill="#603913" d="M86.4,63.9C86.3,63.9,86.3,63.9,86.4,63.9c-0.4-0.1-0.5-0.3-0.5-0.6l0.6-3c0.2-1,0.3-2-0.3-2.7
		c-0.2-0.2-0.2-0.5,0-0.7c0.2-0.2,0.5-0.2,0.7,0c0.9,1.1,0.7,2.7,0.5,3.5l-0.6,3C86.8,63.7,86.6,63.9,86.4,63.9z"/>
</g>
<g>
	<path fill="#603913" d="M94.7,60.5C94.6,60.5,94.6,60.5,94.7,60.5c-0.3,0-0.5-0.3-0.5-0.6c0.2-1.7,0.2-3.5,0.1-5.2
		c0-0.3,0.2-0.5,0.4-0.5c0.3,0,0.5,0.2,0.5,0.4c0.2,1.8,0.2,3.6-0.1,5.4C95.1,60.3,94.9,60.5,94.7,60.5z"/>
</g>
<g>
	<path fill="#603913" d="M24.8,87.1c-0.1,0-0.1,0-0.2-0.1c-0.2-0.1-0.4-0.4-0.2-0.7c0.7-1.4,1.4-3,1.5-4.6c0-0.3,0-0.6,0-0.9
		c0-0.3,0-0.6,0-0.9c0-1.4,0.4-2.9,1.2-4.6c0.1-0.2,0.4-0.3,0.7-0.2c0.2,0.1,0.3,0.4,0.2,0.7c-0.8,1.5-1.1,2.9-1.1,4.1
		c0,0.3,0,0.6,0,0.8c0,0.3,0.1,0.7,0,1c0,1.8-0.8,3.5-1.6,5C25.2,87,25,87.1,24.8,87.1z"/>
</g>
<g>
	<path fill="#603913" d="M28.3,110.3C28.3,110.3,28.3,110.3,28.3,110.3c-0.3,0-0.5-0.3-0.5-0.5c0.2-2.2-0.6-4.3-1.5-6.5
		c-0.6-1.7-1.3-3.4-1.5-5.2c-0.4-3.5,0.9-6.9,2.2-10.1c0.9-2.1,1.7-4.3,2.1-6.6c0-0.3,0.3-0.5,0.6-0.4c0.3,0,0.5,0.3,0.4,0.6
		c-0.4,2.3-1.3,4.6-2.2,6.8c-1.3,3.3-2.5,6.4-2.2,9.6c0.2,1.7,0.8,3.4,1.5,5c0.9,2.2,1.8,4.5,1.5,7
		C28.8,110.1,28.5,110.3,28.3,110.3z"/>
</g>
<g>
	<path fill="#603913" d="M32.4,83.9c-0.1,0-0.2,0-0.2-0.1c-0.2-0.1-0.3-0.4-0.2-0.7c0.7-1.3,1.2-2.8,1.4-4.2c0-0.3,0.3-0.5,0.6-0.4
		c0.3,0,0.5,0.3,0.4,0.6c-0.3,1.6-0.8,3.1-1.5,4.5C32.8,83.8,32.6,83.9,32.4,83.9z"/>
</g>
<g>
	<path fill="#603913" d="M25.5,170.5C25.5,170.5,25.5,170.5,25.5,170.5c-0.3,0-0.5-0.3-0.5-0.5c1-11.1,1.8-22.3,2.4-33.2l0.4-5.6
		c0.3-5.6,0.7-11.3,1.9-16.9c0.1-0.3,0.3-0.4,0.6-0.4c0.3,0.1,0.4,0.3,0.4,0.6c-1.2,5.5-1.6,11.2-1.9,16.8l-0.4,5.6
		c-0.7,10.9-1.4,22.2-2.4,33.2C26,170.3,25.8,170.5,25.5,170.5z"/>
</g>
<g>
	<path fill="#603913" d="M31.4,186.4c-0.1,0-0.3-0.1-0.4-0.2c-0.2-0.2-0.2-0.5,0-0.7c1.3-1.1,1.5-3,1.6-4.9c0.6-9.6,1.1-19.4,1.6-29
		c0-0.3,0.2-0.5,0.5-0.5c0.3,0,0.5,0.2,0.5,0.5c-0.5,9.7-1,19.4-1.6,29.1c-0.1,2.1-0.4,4.2-1.9,5.6
		C31.7,186.3,31.6,186.4,31.4,186.4z"/>
</g>
<g>
	<path fill="#603913" d="M40.4,176.7C40.4,176.7,40.4,176.7,40.4,176.7c-0.3,0-0.5-0.3-0.5-0.5c0.7-8.5,2.2-17,4.7-25.2
		c0.1-0.3,0.4-0.4,0.6-0.3c0.3,0.1,0.4,0.4,0.3,0.6c-2.4,8.1-4,16.5-4.6,25C40.9,176.5,40.7,176.7,40.4,176.7z"/>
</g>
<g>
	<path fill="#603913" d="M52.3,183.8C52.3,183.8,52.2,183.7,52.3,183.8c-0.4-0.1-0.5-0.3-0.5-0.6c1.6-8.8,2.3-17.8,2-26.7
		c0-0.3,0.2-0.5,0.5-0.5c0.3,0,0.5,0.2,0.5,0.5c0.2,9-0.5,18-2.1,26.9C52.7,183.6,52.5,183.8,52.3,183.8z"/>
</g>
<g>
	<path fill="#603913" d="M69.7,177.5c-0.3,0-0.5-0.2-0.5-0.5c-0.1-5.9-0.1-11.8,0.1-17.7c0-0.3,0.3-0.5,0.5-0.5
		c0.3,0,0.5,0.2,0.5,0.5c-0.2,5.9-0.3,11.8-0.1,17.7C70.2,177.3,70,177.5,69.7,177.5C69.7,177.5,69.7,177.5,69.7,177.5z"/>
</g>
<g>
	<path fill="#603913" d="M79.3,179.2c-0.2,0-0.4-0.2-0.5-0.4c-0.8-4-1-8.2-0.6-12.2c0.1-1,0.2-2,0.4-3c0.2-1.6,0.4-3.3,0.5-5
		c0.1-3.4-0.5-6.9-1.9-10c-0.1-0.3-0.4-0.9-0.8-0.9c0,0,0,0,0,0c-0.3,0-0.5-0.2-0.5-0.5c0-0.3,0.2-0.5,0.5-0.5
		c0.5,0,1.2,0.2,1.8,1.5c1.4,3.3,2,6.9,1.9,10.5c-0.1,1.7-0.3,3.4-0.5,5.1c-0.1,1-0.3,2-0.4,3c-0.4,4-0.2,8,0.6,12
		C79.8,178.9,79.6,179.2,79.3,179.2C79.3,179.2,79.3,179.2,79.3,179.2z"/>
</g>
<g>
	<path fill="#603913" d="M84.4,172.2c-0.3,0-0.5-0.2-0.5-0.5c-0.1-7.9-0.3-15.8-0.5-23.7c0-0.3,0.2-0.5,0.5-0.5
		c0.3,0,0.5,0.2,0.5,0.5c0.3,7.9,0.5,15.8,0.5,23.7C84.9,172,84.7,172.2,84.4,172.2C84.4,172.2,84.4,172.2,84.4,172.2z"/>
</g>
<g>
	<path fill="#603913" d="M86.4,130.4C86.4,130.4,86.3,130.4,86.4,130.4c-0.4-0.1-0.5-0.3-0.5-0.6c0.3-1.6,1.1-2.9,1.8-4.3
		c0.4-0.7,0.8-1.4,1.2-2.2c1.1-2.5,1.4-5.5,0.9-8.8c-0.5-3-1.6-6-2.6-8.8c-0.1-0.3,0-0.5,0.3-0.6c0.3-0.1,0.5,0,0.6,0.3
		c1.1,2.9,2.2,5.9,2.7,9c0.6,3.5,0.3,6.8-0.9,9.4c-0.3,0.8-0.8,1.5-1.2,2.2c-0.8,1.3-1.5,2.6-1.7,4
		C86.8,130.3,86.6,130.4,86.4,130.4z"/>
</g>
<g>
	<path fill="#603913" d="M59.5,126.6c0,0-0.1,0-0.1,0c-0.3-0.1-0.4-0.3-0.4-0.6c0.9-4.1,1.5-8.2,1.8-12.3c0-0.3,0.3-0.5,0.5-0.5
		c0.3,0,0.5,0.3,0.5,0.5c-0.4,4.2-1,8.4-1.8,12.4C59.9,126.5,59.7,126.6,59.5,126.6z"/>
</g>
<g>
	<path fill="#603913" d="M48.3,126.9c-0.3,0-0.5-0.2-0.5-0.5c-0.1-1.9,0-3.9,0.3-5.8c0-0.3,0.3-0.5,0.6-0.4c0.3,0,0.5,0.3,0.4,0.6
		c-0.3,1.8-0.4,3.7-0.3,5.6C48.8,126.6,48.6,126.9,48.3,126.9C48.3,126.9,48.3,126.9,48.3,126.9z"/>
</g>
<g>
	<path fill="#603913" d="M36.7,124.6C36.7,124.6,36.6,124.6,36.7,124.6c-0.3,0-0.5-0.3-0.5-0.6c0.3-2.5,0.6-5,0.8-7.4
		c0-0.3,0.3-0.5,0.5-0.5c0.3,0,0.5,0.3,0.5,0.5c-0.2,2.5-0.5,5-0.8,7.5C37.1,124.4,36.9,124.6,36.7,124.6z"/>
</g>
<g>
	<path fill="#603913" d="M66.4,130.4c0,0-0.1,0-0.1,0c-0.3-0.1-0.4-0.3-0.4-0.6c0.1-0.5,0-1-0.2-1.6c-0.1-0.3-0.2-0.7-0.2-1
		c-0.1-0.7,0-1.5,0.1-2.2c0.1-0.9,0.2-1.8-0.1-2.6c-0.1-0.3,0-0.5,0.3-0.7c0.3-0.1,0.5,0,0.7,0.3c0.4,1,0.3,2,0.1,3.1
		c-0.1,0.7-0.2,1.3-0.1,1.9c0,0.3,0.1,0.6,0.2,0.9c0.2,0.6,0.3,1.3,0.2,2C66.8,130.3,66.6,130.4,66.4,130.4z"/>
</g>
<g>
	<path fill="#603913" d="M71.1,128.5c-0.1,0-0.1,0-0.2,0c-0.3-0.1-0.4-0.4-0.3-0.7c1-2.5,1.6-5.3,1.5-8.1c0-0.3,0.2-0.5,0.5-0.5
		c0,0,0,0,0,0c0.3,0,0.5,0.2,0.5,0.5c0,2.9-0.5,5.8-1.6,8.5C71.5,128.4,71.3,128.5,71.1,128.5z"/>
</g>
<g>
	<path fill="#FFFFFF" d="M39.6,78.1c-3.5,6-8.2,14-6.4,23.1s13.3,15,19.3,10c6-5,8.5-17.8,8.5-17.8s-0.8,5.9,2.2,11
		c3,5.1,6.8,8.5,12.1,8.7c5.3,0.2,9.6-7.6,10.3-13.3s4.2-16.4,2.9-20.3s-9-8.5-16.3-4.9S61.9,81,61.9,81s0.9-5.4-9-7.7
		S39.6,78.1,39.6,78.1z"/>
	<path fill="#3C2415" d="M75.5,114.1c-0.1,0-0.2,0-0.3,0c-5.2-0.2-9.4-3.2-13-9.2c-1-1.7-1.6-3.6-2-5.2c-1.4,4.2-3.7,9.5-7.2,12.4
		c-1.6,1.3-3.7,2-6,2c-6,0-13.5-5.1-15-12.7c-1.9-9.5,3-17.7,6.5-23.7l0.1-0.1c0.1-0.2,2.9-5.8,10.4-5.8c1.3,0,2.6,0.2,4,0.5
		c6.9,1.6,8.9,4.7,9.5,6.8c1.6-1.2,4.5-3.1,9.1-5.4c1.9-0.9,3.9-1.4,6-1.4c5.7,0,10.6,3.6,11.7,6.9c0.9,2.8-0.3,8.2-1.5,13.5
		c-0.6,2.7-1.2,5.3-1.4,7.2C85.9,105.7,81.6,114.1,75.5,114.1z M61,92.4c0.1,0,0.1,0,0.2,0c0.5,0.1,0.9,0.6,0.8,1.1
		c0,0.1-0.7,5.6,2.1,10.3c3.1,5.3,6.8,8,11.3,8.2l0.2,0c4.6,0,8.5-7.4,9.1-12.5c0.2-2.1,0.8-4.7,1.4-7.4c1.1-4.8,2.3-10.2,1.5-12.4
		c-0.7-2.3-4.8-5.5-9.8-5.5c-1.8,0-3.5,0.4-5.1,1.2c-7,3.5-10.1,6.3-10.1,6.3c-0.3,0.3-0.8,0.3-1.1,0.1c-0.4-0.2-0.6-0.6-0.5-1
		c0-0.2,0.5-4.6-8.2-6.6c-1.2-0.3-2.4-0.4-3.5-0.4c-6.3,0-8.7,4.7-8.7,4.7l-0.1,0.2c-3.4,5.7-8,13.6-6.2,22.3
		c1.3,6.5,7.9,11.1,13,11.1c1.8,0,3.4-0.5,4.7-1.6c5.6-4.7,8.1-17.1,8.1-17.3C60.1,92.8,60.5,92.4,61,92.4z"/>
</g>
<g>
	<path fill="#E6E7E8" d="M20.4,58.3c-1.1,10.4,3,14.6,3,14.6s23.3,13.9,38.5,14.6c15.2,0.7,33-5.8,33-5.8s3.7-3,5.8-10.5
		c2.1-7.5,0.3-14.7,0.3-14.7s-12.4,14.2-35.1,9.4S23.7,49.6,23.7,49.6S21,52.5,20.4,58.3z"/>
	<path fill="#3C2415" d="M64.1,87.9C64.1,87.9,64.1,87.9,64.1,87.9c-0.8,0-1.5,0-2.2,0c-15.2-0.7-38.5-14.5-38.7-14.6
		c0,0-0.1,0-0.1-0.1c-0.2-0.2-4.2-4.4-3.1-15c0.6-5.8,3.3-8.8,3.5-9c0.2-0.2,0.4-0.2,0.6-0.1c0.2,0.1,19.5,11.5,41.9,16.1
		c3.1,0.6,6.1,1,9,1c16.5,0,25.5-10.1,25.6-10.2c0.1-0.1,0.3-0.2,0.5-0.2c0.2,0,0.3,0.2,0.4,0.4c0.1,0.3,1.9,7.3-0.3,14.9
		C99,78.8,95.4,81.8,95.2,82c0,0-0.1,0.1-0.1,0.1C94.9,82.1,78.7,87.9,64.1,87.9z M23.7,72.4c1.4,0.8,23.7,13.8,38.2,14.5
		c14.4,0.6,31.3-5.3,32.7-5.8c0.5-0.4,3.7-3.5,5.6-10.2c1.6-5.8,0.9-11.4,0.5-13.5c-2.4,2.3-11.3,9.9-25.7,9.9c-3,0-6.1-0.3-9.2-1
		c-20.8-4.3-39.1-14.4-41.9-16c-0.7,0.9-2.5,3.6-2.9,8.1C19.9,67.8,23.3,72,23.7,72.4z"/>
</g>
<g>
	<g>
		<path d="M48.3,88.8c-1.4,0.3-2.6,1.4-3.1,2.8c-0.5,1.4-0.5,2.9-0.2,4.3c0.3,1.2,0.9,2.5,2,3c0.8,0.3,1.7,0.2,2.5-0.3
			c1.1-0.7,1.8-2,2-3.4c0.2-1.3,0-2.7-0.3-4c-0.2-0.8-0.3-1.7-0.9-2.3c-0.6-0.6-1.7-0.8-2.2-0.1"/>
	</g>
	<g>
		<g>
			<path d="M48,87.7c-3.1,0.8-4.4,3.8-4.2,6.8c0.2,2.7,1.8,6.4,5.1,5.7c3.4-0.8,3.8-4.9,3.4-7.7c-0.3-2-1.9-7-4.9-4.7
				c-1,0.7,0.3,2.9,1.2,2.2c1.7-1.3,1.9,4.3,1.9,4.9c-0.3,1.7-1.5,3.7-3.4,2.7c-2.8-1.5-1.2-6.7,1.6-7.5C50,89.7,49.1,87.4,48,87.7
				L48,87.7z"/>
		</g>
	</g>
</g>
<g>
	<g>
		<path d="M74.9,90.7c-1.1,0.2-1.8,1.3-2.2,2.4c-0.5,1.3-0.9,2.6-1.2,4c-0.2,0.7-0.3,1.6,0.1,2.2c0.2,0.3,0.5,0.6,0.8,0.9
			c0.7,0.6,1.4,1.2,2.3,1.2c1,0,1.9-0.8,2.6-1.5c0.3-0.3,0.6-0.6,0.8-1c0.9-1.5,0.5-3.5,0.1-5.2c-0.2-0.8-0.4-1.5-0.6-2.3
			c-0.1-0.3-0.2-0.7-0.5-0.8c-0.2-0.1-0.3,0-0.5,0c-0.5,0.1-1,0.2-1.5,0.3"/>
	</g>
	<g>
		<g>
			<path d="M74.5,89.7c-2.9,0.9-4,5.2-4.3,7.9c-0.3,2.7,2.4,5.5,5.2,4.9c2.9-0.6,4.6-3.9,4.4-6.6c-0.1-1.5-0.5-4-1.2-5.4
				c-0.8-1.4-2.3-0.8-3.6-0.5c-1.5,0.3-1.4,2.5,0.2,2.2c0.7-0.2,1.3-0.3,2-0.4c-0.4-0.1-0.7-0.2-1.1-0.4c0.9,0.8,1.1,3.4,1.2,4.6
				c0.2,1.8-0.5,4.2-2.6,4c-2.4-0.3-2.2-2.2-1.7-4c0.3-1.3,0.8-3.7,2.3-4.2C76.8,91.2,76,89.2,74.5,89.7L74.5,89.7z"/>
		</g>
	</g>
</g>
<g>
	<ellipse fill="#FFFFFF" cx="49.6" cy="95.1" rx="0.8" ry="1.4"/>
</g>
<g>
	<ellipse fill="#FFFFFF" cx="77.6" cy="96.5" rx="0.8" ry="1.4"/>
</g>
<g>
	<path fill="#B17D34" d="M25.3,32.4c0,0-2.8,10.4,34.2,17.2s43.6-8.6,43.6-8.6s-2.4-11.8-34.6-15.5S28.4,25.4,25.3,32.4z"/>
	<path fill="#3C2415" d="M76.7,51.8C76.7,51.8,76.7,51.8,76.7,51.8c-5.2,0-11.1-0.6-17.4-1.7c-23.2-4.3-31.1-10-33.6-14
		c-1.4-2.2-1-3.8-1-3.8c2.3-5.2,7-8.7,22.3-8.7c5.7,0,12.7,0.5,21.4,1.5c32.2,3.6,34.9,15.4,35,15.9l0,0.2l-0.1,0.1
		C103.3,41.6,98.7,51.8,76.7,51.8z M25.8,32.6c0,0-0.2,1.2,0.9,3.1c2,3.1,9,9,32.8,13.4c6.2,1.1,12,1.7,17.2,1.7c0,0,0,0,0,0
		c19.8,0,25.1-8.6,25.8-9.9c-0.4-1.4-4.7-11.6-34.1-14.9c-8.7-1-15.6-1.4-21.3-1.4C32.3,24.6,27.9,27.8,25.8,32.6
		C25.8,32.6,25.8,32.6,25.8,32.6z"/>
</g>
<g>
	<g>
		<path fill="#603913" d="M68,35.2c-4.2-0.1-8.1,2.6-3.1,5.7c2.5,1.5,5.4,2.3,8.3,1.8c1.6-0.3,5-1.2,5.4-3.2c0.5-2.7-4.2-5-6-6
			c-3.2-1.9-6.8-3.1-10.4-3.7c-5-0.8-14.5-1.2-17.9,3.6C37,44,79.2,47.5,85,46.4c5.4-1,8.9-5.6,5.4-10.8c-1.8-2.7-4.9-3.8-7.9-4.5
			c-5.2-1.3-10.6-1.9-15.9-2.8c-9.6-1.7-20.7-3.4-29.9,0.9c-2.1,1-4.3,2.5-4.3,5.1c0,4.2,4.7,5.5,7.9,6.2c0.8,0.2,3.4-1.1,1.8-1.4
			c-1.7-0.4-3.3-0.7-4.7-1.9c-2.8-2.3-2.2-2.9,0.4-5.5c2.7-2.6,4-3,7.5-3.4c1.7-0.2,3.4-0.3,5.1-0.2c6.1,0,12.1,1.3,18.1,2.4
			c5.2,1,13.1,0.9,17.3,4.4c1.7,1.4,3.3,3.8,3,6.2c-0.7,4.6-6.2,4.4-9.8,4.4c-5.6-0.1-11.3-0.7-16.7-1.9c-4-0.9-15.2-3-15.6-8.1
			c-0.6-7.5,16.9-3.6,20.2-2.2c2.3,0.9,5.4,2.2,7,4.1c0.4,0.3,0.8,0.7,1.2,1c-1.7,0.9-3.3,1.8-5,2.8c-0.9-0.3-1.7-0.7-2.5-1.3
			c-1.5-0.4-1.7-1.4-0.6-2.9C67.9,36.7,70,35.3,68,35.2L68,35.2z"/>
	</g>
</g>
<g>
	<g>
		<path fill="#FFFFFF" d="M39.8,129.2c5,5,7.5,10.1,11.2,16.1c2.1,3.4,4.8,7.5,8.8,7.3c1.3-0.1,2.6-0.6,3.8-1.2
			c2.8-1.3,5.8-2.7,7.7-5.2c1.3-1.7,2.1-3.8,3.1-5.7c3.3-6.1,9.9-10.5,11.8-17.2c-4.9,2.5-9.2,6.1-13.8,9.1c-4.6,3-10,5.4-15.5,5
			C50.2,136.9,39.8,129.2,39.8,129.2z"/>
	</g>
	<g>
		<g>
			<path fill="#3C2415" d="M38.4,129.7c5.6,5.9,8.5,13.4,13.5,19.6c3.1,3.8,6.6,4.7,11.1,3c2.9-1.1,6.1-2.7,8.3-4.8
				c2.1-2.1,3-4.7,4.5-7.2c3.5-6.1,9.5-10.3,11.8-17.2c0.3-0.9-2-0.2-2.3-0.1c-9,4.8-18.8,16.3-29.9,13.3c-5.1-1.3-10-4.5-14.2-7.6
				C40.4,128.1,37.9,129.3,38.4,129.7c5.5,4,12.3,8.5,19.3,8.4c11.5-0.2,19.7-9.5,29.2-14.6c-0.8,0-1.5,0-2.3-0.1
				c-1.7,5-5.3,8.5-8.5,12.4c-4,4.9-5.5,11-11.4,14.2c-8,4.2-11.2-3.1-14.6-8.8c-2.7-4.5-5.5-8.8-9.1-12.6
				C40.6,128.1,37.9,129.1,38.4,129.7z"/>
		</g>
	</g>
</g>
<g>
	<path fill="#3C2415" d="M50.2,143.4l-1-0.2c0.1-0.3,0.1-0.6,0.2-1c0.5-2,1.1-4.7,0.6-6.4l1-0.3c0.5,1.9-0.1,4.7-0.6,6.9
		C50.3,142.8,50.2,143.1,50.2,143.4z"/>
</g>
<g>
	<path fill="#3C2415" d="M57.4,152.4c-0.2-3.9-0.1-10.5,0.2-14.9l1,0.1c-0.2,4.4-0.4,10.9-0.2,14.8L57.4,152.4z"/>
</g>
<g>
	<path fill="#3C2415" d="M64.7,150.7c-0.6-2.3-0.8-6.1-0.1-8.9c0.2-0.8,0.4-2,0.6-3.1c0.2-1.1,0.4-2.3,0.6-3.2l1,0.3
		c-0.2,0.8-0.4,2-0.6,3.1c-0.2,1.1-0.4,2.3-0.6,3.2c-0.7,2.6-0.4,6.2,0.1,8.4L64.7,150.7z"/>
</g>
<g>
	<path fill="#3C2415" d="M71.6,144.9c-0.4-3.5-0.3-8.6-0.2-12.3l1,0c-0.1,3.6-0.1,8.7,0.2,12.1L71.6,144.9z"/>
</g>
<g>
	<path fill="#754C1F" stroke="#3C2415" stroke-width="3" stroke-miterlimit="10" d="M100.7,71"/>
</g>
<g opacity="0.2">
	<g>
		<path d="M22.1,51.6c-1.4,4.6-1.7,9.4-1.4,14.2c0.3,4.2,1.6,6.4,5.3,8.5c1.5,0.8,5.9-0.6,3.4-2c-6-3.3-4.2-14.7-2.5-20.2
			C27.5,50.1,22.6,50,22.1,51.6L22.1,51.6z"/>
	</g>
</g>
<g opacity="0.2">
	<g>
		<path d="M34.3,129.7c9.3,8.4,10.5,23.9,24.9,25.9c5.3,0.7,10.6-0.5,14.2-4.7c2.5-3,3.5-6.9,5.3-10.3c2-3.8,4.8-7,8.1-9.7
			c0.1-0.1-3.8-1.7-4.7-1c-3.8,3.1-6.9,6.9-9.1,11.3c-2.3,4.8-4.2,11-10.1,12.6c-4.4,1.2-8.4-1.2-11-4.5c-2-2.6-3.4-5.3-4.9-8.2
			c-2.1-4.1-4.5-7.8-7.9-10.9C38.1,129.3,34.4,129.8,34.3,129.7L34.3,129.7z"/>
	</g>
</g>
<g opacity="0.2">
	<g>
		<path d="M29,100.9c-0.9,6.5,4.6,11,10.1,12.9c4.6,1.6,13.7,4.3,17.7-0.1c-0.2,0.3-4.1-2-4.9-1.1c-3.9,4.3-12.2,1.3-15.4-2.3
			c-1.9-2.2-3.1-5.3-2.7-8.2C34,101.4,29.1,100.5,29,100.9L29,100.9z"/>
	</g>
</g>
<g opacity="0.2">
	<g>
		<path d="M60.9,107c4.5,10.3,20.2,14.1,25.6,2.8c0.9-1.9-3.2-4.8-4-3c-2.1,4.4-4.8,6.3-9.7,5.9c-3.6-0.4-6.2-1.9-7.7-5.3
			C64.3,105.6,59.7,104.3,60.9,107L60.9,107z"/>
	</g>
</g>
<g opacity="0.2">
	<g>
		<path d="M21.5,77.6c1.1,8.2-2.1,16.1-0.7,24.3c1.6,9,4.7,16.7,3.8,26c-0.9,8.4-3.1,16.6-3.8,25c-0.7,9-0.1,18.1,0.5,27.1
			c0.4,5.4,10,7,9.6,0.9c-0.6-9-1.2-18.1-0.5-27.1c0.7-8.6,3.1-17,3.9-25.7c0.7-8.6-1.6-15.9-3.5-24.2c-2-8.6,1.5-16.9,0.4-25.5
			C30.5,73.1,20.7,71.6,21.5,77.6L21.5,77.6z"/>
	</g>
</g>
<g opacity="0.2">
	<g>
		<path d="M29.9,52.2c1-5.6,2.3-14.4,6.6-18.5c2.5-2.3,6.5-2.3,9.7-2.7c3.5-0.3,7-0.7,10.6-1c3.1-0.3-2.1-8.4-5.4-8.1
			C45.2,22.5,35,21.6,30,26.1c-4.8,4.4-6.3,13.6-7.3,19.6C22.1,48.9,29.4,55.1,29.9,52.2L29.9,52.2z"/>
	</g>
</g>
<g opacity="0.2">
	<g>
		<path d="M61.2,65c-4.5-0.2-9.7,0.1-12.8,3.8c-2.8,3.2-2.3,7.3,0,10.6c5.5,7.7,15.5,9.5,24.4,7.3c1.8-0.4-4.1-7.7-6.6-7.1
			c-2.5,0.6-5,0.7-7.6,0.7c-1.5,0-3-0.1-4.5-0.3c-1.4-0.4-1.7-0.4-0.6-0.2c0.8,0.4,1,0,0.7-1c1.4-2.8,2.4-4.7,5.6-5.8
			c2.6-0.9,5.4-0.9,8.1-0.8c1.7,0.1-1.1-3.5-1.3-3.7C65.2,67,63.2,65.1,61.2,65L61.2,65z"/>
	</g>
</g>
<g>
	<path fill="#BE1E2D" d="M52.4,71.3c-1.7,4.5-0.5,8.9,4.1,11.6s12.8,3.4,15.9,0s7.2-13.4,0.7-14.5C66.4,67.4,55.1,63.9,52.4,71.3z"
		/>
</g>
<g>
	<g>
		<path fill="#FFFFFF" d="M55.3,72.2c1.1,1.9,1.3,3.8,2.1,5.8c0.3,0.9,0.5,1.3,1.5,1.6c2.5,0.8,3.8-2.4,4.7-4.2
			c-0.8-0.1-1.6-0.2-2.4-0.4c1,1.6,2.2,5.3,4.8,4.9c1.1-0.2,1.4-1.4,1.9-2.4c1.1-2,2.2-4,3.3-6c0.2-0.4-2.1-1.2-2.5-0.5
			c-1.4,2.5-2.6,5.8-4.5,8c0.4,0,0.8-0.1,1.2-0.1c-0.1,0-1.7-3.3-1.9-3.7c-0.3-0.5-2.1-1-2.4-0.4c-0.2,0.4-2.1,3.8-2.2,3.8
			c0.4,0.2,0.9,0.3,1.3,0.5c-0.7-0.7-0.7-2.6-1-3.5c-0.4-1.1-0.9-2.2-1.5-3.2C57.3,71.8,55,71.8,55.3,72.2L55.3,72.2z"/>
	</g>
</g>
<g>
	<g>
		<path fill="#BE1E2D" d="M58.7,205.5c1.2,2.6,2.2,5.2,3,7.9c0.8,3,0.6,6.6,1.7,9.4c0.6,1.5,0.9,2.4,2.6,3.1
			c6,2.5,8.7-7.8,10.2-11.6c-1.5-0.2-3.1-0.4-4.6-0.7c2.2,4.6,3.3,11.7,8.8,13c0.5,0.1,2,0.3,2.4-0.2c4.5-6.6,7.1-15.6,10.3-23
			c0.4-1-4.1-2.3-4.7-0.9c-3.1,7.1-5.6,16.1-10,22.5c0.8-0.1,1.6-0.1,2.4-0.2c-0.3-0.1-0.7-0.2-1-0.2c0.7,0.4,1.4,0.7,2.1,1.1
			c-2.3-3.5-3.9-7.8-5.7-11.6c-0.5-1-4.1-2-4.6-0.7c-1,2.5-2.1,5-3.4,7.3c-2.7,3.4-2.7,4-0.2,2c-0.1-0.8-0.2-1.5-0.3-2.3
			c0.4-4.5-2.5-10.4-4.3-14.3C62.8,204.6,58.2,204.4,58.7,205.5L58.7,205.5z"/>
	</g>
</g>
<g>
	<g>
		<path fill="#3C2415" d="M40.3,214.1c0.1,0.6,0.1,1.1,0.1,1.6c0,2.6-0.9,4.6-2.7,6.1c-1.4,1.2-3,1.8-4.6,1.8c-1.6,0-2.9-0.6-4-1.7
			c-1.2-1.3-2-3.3-2.2-5.8c0-0.4-0.1-0.9-0.1-1.3c0-2.6,0.6-4.7,1.8-6.4c1.2-1.8,2.8-2.6,4.7-2.5c2,0.1,3.5,0.6,4.4,1.5
			C39,208.6,39.8,210.8,40.3,214.1z M37.4,214.7c-0.5-3.4-1.6-5.2-3.4-5.4c-1.6-0.2-2.8,0.5-3.6,2c-0.7,1.2-1,2.6-1,4.2
			c0.1,1.2,0.5,2.3,1.3,3.2c0.8,0.8,1.6,1.4,2.6,1.5c0.9,0.2,1.8-0.2,2.7-1.1c1-1,1.4-2.2,1.4-3.6C37.4,215.3,37.4,215,37.4,214.7z"
			/>
	</g>
	<g>
		<path fill="#3C2415" d="M53.5,228.3c-1.3,0.7-2.7,1.1-4.3,1.1c-1.6,0-3.2-0.4-4.8-1.1c-0.2-0.1-0.3-0.2-0.2-0.5l1-2.4
			c0.1-0.2,0.2-0.3,0.4-0.2c1.2,0.5,2.2,0.8,3.3,0.8c0.6,0,1.1-0.1,1.6-0.3c2-0.8,3-2.5,3-5.1c0-0.4,0-0.8-0.1-1.2
			c0-0.3-0.2-0.4-0.5-0.2c-1.5,0.9-3,1.3-4.3,1.3c-1.6,0-2.9-0.6-4-1.8c-1-1.2-1.5-2.7-1.5-4.6c0-0.6,0.1-1.3,0.2-1.9
			c0.8-4.3,2.9-6.5,6.3-6.5c0.7,0,1.4,0.1,2.1,0.3c1.8,0.5,3.2,1.9,4.2,4.2c0.9,2.1,1.4,4.7,1.4,7.6c0,2.4-0.3,4.5-1,6.4
			C55.6,226.3,54.7,227.6,53.5,228.3z M53,213c-0.4-2.1-1.4-3.3-2.8-3.7c-0.2,0-0.4-0.1-0.6-0.1c-0.9,0-1.7,0.5-2.3,1.6
			c-0.7,1-1,2.1-1,3.3c0,0.9,0.3,1.7,0.8,2.3c0.5,0.6,1.2,0.9,2.2,0.9c0.4,0,0.8-0.1,1.1-0.2c1.8-0.7,2.7-1.8,2.7-3.4
			C53,213.5,53,213.3,53,213z"/>
	</g>
</g>
<g>
	<path fill="#3C2415" d="M26.1,225.2c-1.5-0.5-2.5-1.1-3-2.7c-0.1-0.5,0.2-5.7,0.2-11.1c0-6.2-0.3-12.7-0.3-12.7
		c0-0.2-0.1-0.4-0.4-0.4l-2.4-0.1c-0.1,0-0.2,0-0.2,0.1c-0.1,0.1-0.1,0.2-0.1,0.2c0,0,0.4,6.6,0.4,12.9c0,5.3-0.4,10.5-0.4,11.3
		c0.1,1.9,0.9,3.3,2.4,4.3c0.9,0.6,1.9,0.9,3,1c0.2,0,0.4-0.1,0.4-0.3l0.5-2.1C26.4,225.4,26.3,225.2,26.1,225.2z"/>
</g>
</svg>
